# xmcd
#
# Track frame offsets: 
#        150
#        20279
#        44761
#        62489
#        80169
#        99289
#        117988
#        135604
#        157588
#        176349
#        196585
#        218650
#        239763
#        261258
#        278180
#        295822
#
# Disc length: 4219 seconds
#
# Revision: 1
# Processed by: cddbd v1.5.2PL0 Copyright (c) Steve Scherf et al.
# Submitted via: ExactAudioCopyFreeDBPlugin 1.0
#
DISCID=dd107910
DTITLE=Jay-Z - Pride Of Marcy [CD3]
DYEAR=1998
DGENRE=Rap
TTITLE0=Call Me (Hip Hop Mix) Feat. Blackstreet
TTITLE1=Young G's Feat. Puff Daddy and The Notorious B.I.G.
TTITLE2=Can I Live II Feat. Memphis Bleek
TTITLE3=Wishing On A Star (Track Masters Remix) Feat. Gwen Dickey
TTITLE4=Money Ain't A Thang Feat. Jermaine Dupri
TTITLE5=Be Alone No More Feat. Another Level
TTITLE6=A Million And One Questions (Dj Premier Remix)
TTITLE7=Blackout Feat. The Lox and DMX
TTITLE8=From Marcy To Hollywood Feat. Memphis Bleek and Sauce Money
TTITLE9=4 Alarm Blaze Feat. M.O.P and Teflon
TTITLE10=Lobster and Shrimp Feat. Timbaland
TTITLE11=Keep It Real Feat. Jon B and Coko
TTITLE12=We Ride Feat. R. Kelly, Cam'Ron, Noreaga and Vegas Cats
TTITLE13=Like That Feat. Kid Capri
TTITLE14=Wishing On A Star (Radio Edit) Feat. Gwen Dickey
TTITLE15=Gangsta Shit Feat. Ja Rule
EXTD=
EXTT0=
EXTT1=
EXTT2=
EXTT3=
EXTT4=
EXTT5=
EXTT6=
EXTT7=
EXTT8=
EXTT9=
EXTT10=
EXTT11=
EXTT12=
EXTT13=
EXTT14=
EXTT15=
PLAYORDER=
